<?xml version="1.0" encoding="UTF-8"?>
<svg width="84px" height="148px" viewBox="0 0 84 148" version="1.1" xmlns="http://www.w3.org/2000/svg" xmlns:xlink="http://www.w3.org/1999/xlink">
    <!-- Generator: Sketch 51.2 (57519) - http://www.bohemiancoding.com/sketch -->
    <title>special/selins head</title>
    <desc>Created with Sketch.</desc>
    <defs></defs>
    <g id="design-no.2" stroke="none" stroke-width="1" fill="none" fill-rule="evenodd">
        <g id="desktop" transform="translate(-1248.000000, -170.000000)">
            <g id="Group-6" transform="translate(-92.000000, 0.000000)">
                <g id="special/selins-head" transform="translate(1340.000000, 170.000000)">
                    <g id="selins-head">
                        <path d="M28.3203679,30.2337985 C25.2662096,41.8014057 23.7391304,48.639493 23.7391304,50.7480602 C23.7391304,53.910911 26.8199351,72.9790756 32.9276253,76.9783206 C39.0353155,80.9775655 56.9613419,72.164648 61.3899293,68.9565867 C65.8185166,65.7485254 70.3043478,56.3786505 70.3043478,50.7480602 C70.3043478,46.9943333 70.3043478,35.9095993 70.3043478,17.493858 C48.4580377,7 35.9991302,4.3765355 32.9276253,9.6234645 C29.8561204,14.8703935 28.3203679,21.7405048 28.3203679,30.2337985 Z" id="Path" fill="#FFD491" fill-rule="nonzero"></path>
                        <path d="M59.3832433,13.0727175 C58.1743383,13.0200233 57.2621401,13.0200233 56.6466485,13.0727175 C34.8791896,14.9362974 40.0556448,24.864027 28.7439897,34.4723779 C25.6939582,37.063137 23.2408994,46.6157219 24.4754794,54.7811014 C25.2985328,60.2246877 26.7213695,65.7314291 28.7439897,71.3013254 L28.7439897,110.869807 L19.894189,138.447344 C13.7402055,108.933382 12.1042648,97.3512664 14.9863669,103.700995 C17.868469,110.050725 15.9478196,121.632841 9.22441876,138.447344 C4.98304737,118.666548 3.39027705,106.342859 4.4461078,101.476276 C5.50193855,96.6096932 4.01990262,96.0735767 0,99.8679262 C9.18923211,75.3948551 14.8524555,56.3439741 16.98967,42.7152834 C20.72547,18.8926578 29.2050219,10.4985039 32.4120864,8.03066499 C38.2236676,3.5586482 46.6955062,0.881759873 57.827602,0 C78.2290348,10.4752244 86.7032516,23.5105989 83.2502523,39.1061236 C79.6939776,55.1680933 82.5468304,64.5204838 81.0953594,69.9003848 C73.8432911,96.780294 78.1502603,83.8913328 78.1502603,108.217214 C78.1502603,116.566248 74.5994707,129.000863 67.4978915,145.52106 L68.3047989,113.524534 C64.9930486,133.720733 63.0534674,144.386242 62.4860554,145.52106 C61.1216248,148.249906 61.4588551,122.390782 61.1461163,124.091826 C59.3832433,133.680415 53.7323801,137.541661 53.2063398,137.178852 C52.0253862,136.364351 46.1552862,148 46.1552862,148 C46.1552862,148 47.0067744,140.428303 48.7097507,125.284908 C53.8637765,114.3274 56.5094091,105.855073 56.6466485,99.8679262 C56.7884663,93.6810453 51.6202014,102.658653 50.5261974,103.700995 C46.5031483,107.534065 60.6168929,74.7640445 63.9998972,64.1998633 C67.9515892,51.8598288 67.4978915,42.7152834 62.4860554,33.3347888 C59.1448313,27.0811258 58.1105606,20.327102 59.3832433,13.0727175 Z" id="Path-2" fill="#463232" fill-rule="nonzero"></path>
                        <ellipse id="Oval-2" fill="#2B1F1F" fill-rule="nonzero" cx="60.7173913" cy="55.5" rx="1" ry="1"></ellipse>
                        <path d="M34.153041,58.1501222 C37.6557541,57.8127901 39.8228893,58.0439596 40.6544466,58.8436308 C41.9017825,60.0431376 44.3823833,58.8699933 45.6078156,60.7405059 C46.4247704,61.9875142 47.6569478,62.6982374 49.3043478,62.8726754 L49.0635985,64.0486029 C45.8721996,65.3495343 43.7846639,66 42.8009915,66 C41.817319,66 40.7850463,65.6796658 39.7041732,65.0389975 C38.4317609,65.0760934 37.535143,65.0192227 37.0143197,64.8683855 C36.4934964,64.7175483 35.4162594,62.892221 33.7826087,59.3924035 L34.153041,58.1501222 Z" id="Path-7" fill-opacity="0.538892663" fill="#FF804A" fill-rule="nonzero"></path>
                    </g>
                </g>
            </g>
        </g>
    </g>
</svg>