<?xml version="1.0" encoding="UTF-8"?>
<svg width="54px" height="49px" viewBox="0 0 54 49" version="1.1" xmlns="http://www.w3.org/2000/svg" xmlns:xlink="http://www.w3.org/1999/xlink">
    <!-- Generator: Sketch 51.2 (57519) - http://www.bohemiancoding.com/sketch -->
    <title>special/tea cup</title>
    <desc>Created with Sketch.</desc>
    <defs></defs>
    <g id="design-no.2" stroke="none" stroke-width="1" fill="none" fill-rule="evenodd">
        <g id="desktop" transform="translate(-149.000000, -472.000000)">
            <g id="special/tea-cup" transform="translate(149.000000, 472.000000)">
                <g id="teacup">
                    <path d="M1.22395222,7.98738984 C2.71986081,2.66246328 5.82521567,2.18113293e-14 10.5400168,2.13162821e-14 C17.6122185,2.13162821e-14 48.7239302,2.6272748 42.0742081,11.0215067 C37.6410601,16.6176614 35.6957814,23.382548 36.2383719,31.3161667 C37.6223682,45.0719947 33.5105119,50.8025773 23.9028029,48.5079143 C15.3305498,46.4605551 11.221473,47.6880345 6.83151796,46.6943237 C-0.117835177,45.1212672 -0.250456766,31.965462 1.22395222,24.5 C2.82782119,16.3790356 2.82782119,10.8748322 1.22395222,7.98738984 Z" id="Path-9" fill="#006203" fill-rule="nonzero"></path>
                    <path d="M39.9006965,12.1428797 L35.8024239,19.3095663 C43.9618771,21.5908706 47.6042176,25.0886518 46.7294453,29.8029098 C45.8546731,34.5171678 41.7726441,36.8585839 34.4833586,36.8271581 L33.0947626,42.1820993 C42.4630125,41.8959406 48.0137013,40.1109602 49.7468292,36.8271581 C52.346521,31.9014549 54.8691661,26.2979805 52.0414002,22.7538486 C50.156223,20.3910939 46.1093218,16.8541043 39.9006965,12.1428797 Z" id="Path-10" fill="#006203" fill-rule="nonzero"></path>
                    <path d="M9.84767,9.49343909 C14.4363982,12.9146959 23.5739525,18.0802483 34.5687095,12.6089931 C39.6939446,10.058553 30.7889959,3 12.113868,3 C6.35976716,3 5.25894184,6.07218226 9.84767,9.49343909 Z" id="Path-8" fill="#000000" fill-rule="nonzero"></path>
                </g>
            </g>
        </g>
    </g>
</svg>